<svg xmlns="http://www.w3.org/2000/svg" viewBox="0 0 44 44">
  <path
     d="M 0,0 V 79.800003 C 238.7,79.800003 432.20001,273.29999 432.20001,512 H 512 C 512,229.2 282.79999,0 0,0 Z"
     style="fill:#003157"
     transform="matrix(0.08493042,0,0,0.08493042,0,0)" />
  <path
     d="m 0,159.60001 v 79.8 C 150.60001,239.40001 272.60001,361.5 272.60001,512 h 79.80001 C 352.39999,317.39999 194.60001,159.60001 0,159.60001 Z"
     style="fill:#0b7a4b"
     transform="matrix(0.08493042,0,0,0.08493042,0,0)" />
  <path
     d="M 76.5,359.10001 C 34.200001,359.10001 0,393.29999 0,435.5 0,477.79999 34.200001,512 76.5,512 118.7,512 153,477.79999 153,435.5 152.89999,393.29999 118.7,359.10001 76.5,359.10001 Z"
     style="fill:#003157"
     transform="matrix(0.08493042,0,0,0.08493042,0,0)" />
</svg>
